
<svg xmlns="http://www.w3.org/2000/svg" version="1.1" xmlns:xlink="http://www.w3.org/1999/xlink" preserveAspectRatio="none" x="0px" y="0px" width="720px" height="720px" viewBox="0 0 720 720">
<defs>
<g id="Layer0_0_FILL">
<path fill="#000000" stroke="none" d="
M 642.65 336.25
Q 639.7 230.1 578.5 152.65 515.45 73.05 420 60.9 332.6 50.2 257.4 88.15 195.1 119.85 150.85 176.65 107.35 232.3 88.95 302.35 70.85 371.65 80.8 441.3 91.15 516.9 131.35 567.75 171.15 617.9 236 642.6 297.2 666.2 364.3 660.3 434 655.15 494.8 619.35 557.85 582.9 593.6 523.55 645.6 439.5 642.65 336.25
M 421.1 296.8
Q 414.45 282.8 417.05 263.25 419.25 244.85 429.95 231.55 445.4 214.6 467.15 215.35 492.25 215.35 504.75 231.55 514.7 244.45 515.45 261.4 516.2 276.9 509.55 289.8 503.65 302.35 491.85 310.8 480.05 319.3 466.4 320.75 452.4 321.9 440.25 315.25 427 308.6 421.1 296.8
M 323.4 255.5
Q 324.15 271.75 314.55 288.35 300.55 311.55 279.9 318.55 268.85 322.25 257.05 320.4 244.85 318.95 236 311.55 226.05 301.95 221.65 287.25 217.2 270.25 222 253.3 227.15 236 240.45 224.9 253.7 214.25 271.8 212 291.3 210.9 306.05 223.1 323.4 235.6 323.4 255.5
M 221.3 487.4
Q 198.4 443.9 205.8 397.8 347 398.55 504.4 408.15 499.95 456.8 469.35 496.6 438.05 538.25 390.85 552.3 343.3 567.4 294.65 548.6 244.85 530.15 221.3 487.4 Z"/>
</g>
</defs>

<g transform="matrix( 1, 0, 0, 1, 0,0) ">
<use xlink:href="#Layer0_0_FILL"/>
</g>
</svg>
